<svg width="84" height="58" viewBox="0 0 84 58" fill="none" xmlns="http://www.w3.org/2000/svg">
<rect x="0.5" y="0.5" width="83" height="57" rx="3.5" fill="#00B041" stroke="#F3F3F3"/>
<path fill-rule="evenodd" clip-rule="evenodd" d="M77.9966 33.3903C77.9625 33.6566 77.9284 33.9228 77.8943 34.189C77.649 36.0897 76.8344 37.7242 75.495 39.0992C74.1351 40.5011 72.4822 41.3773 70.5395 41.6975C67.4244 42.2131 63.822 40.9493 61.9952 38.1252C61.7123 37.6871 61.5283 37.1884 61.2999 36.7166C61.242 36.5952 61.2624 36.4941 61.3578 36.3829C61.6953 35.9954 62.0156 35.5977 62.3428 35.2034C62.3769 35.163 62.3939 35.1124 62.4451 35.0214C62.5678 35.3551 62.6427 35.6146 62.7518 35.8572C63.7879 38.1623 65.5635 39.5575 68.072 39.9788C71.7051 40.5921 75.178 38.1724 76.0062 34.7417C76.1357 34.2059 76.1937 33.6464 76.2175 33.0971C76.2448 32.3827 76.2277 31.6615 76.1834 30.9437C76.1016 29.5788 75.5972 28.3622 74.7588 27.2872C73.5319 25.7167 71.9232 24.7596 69.926 24.5305C67.9425 24.3047 66.1804 24.8978 64.6467 26.1447C63.0483 27.4456 61.6646 28.9553 60.3354 30.519C59.7185 31.247 59.1255 31.9951 58.5222 32.7332C58.4848 32.777 58.4439 32.8174 58.3791 32.8882C58.3723 32.7972 58.3689 32.7466 58.3689 32.6961C58.3689 31.9715 58.3655 31.2436 58.3723 30.519C58.3723 30.4179 58.403 30.3 58.4643 30.2225C59.5243 28.8644 60.6251 27.5399 61.8589 26.3335C62.7722 25.4404 63.764 24.6383 64.8478 23.9576C65.843 23.3307 66.9439 22.9769 68.1095 22.8252C72.7378 22.2254 76.7696 25.4606 77.7205 29.4305C77.833 29.8922 77.8705 30.3708 77.9421 30.8426C77.9591 30.947 77.9796 31.0515 78 31.156C77.9966 31.9075 77.9966 32.6489 77.9966 33.3903Z" fill="white"/>
<path fill-rule="evenodd" clip-rule="evenodd" d="M24.3484 31.1054C21.8945 31.1054 19.4611 31.1054 16.997 31.1054C16.9901 31.0043 16.9833 30.9235 16.9833 30.8426C16.9833 30.455 16.9833 30.0708 16.9833 29.6833C16.9833 29.3665 16.9833 29.3665 17.3173 29.3665C19.3009 29.3665 21.2844 29.3665 23.2714 29.3665C24.1303 29.3665 24.9891 29.3732 25.848 29.3631C26.0525 29.3598 26.1172 29.4204 26.1138 29.6226C26.107 32.6422 26.1104 35.6617 26.1036 38.6847C26.1036 38.8094 26.0457 38.961 25.9639 39.0554C25.0743 40.0866 23.9462 40.7977 22.7091 41.3436C21.5401 41.8592 20.3131 42.1524 19.0385 42.2906C16.8743 42.5231 14.7646 42.3277 12.7708 41.4178C9.28083 39.817 7.09278 37.1446 6.29867 33.424C5.83175 31.2335 5.87606 29.0329 6.69061 26.9097C7.76078 24.116 9.70003 22.0737 12.3448 20.6684C13.7455 19.9236 15.2451 19.4788 16.83 19.3035C17.9921 19.1755 19.1509 19.2227 20.3097 19.3103C21.448 19.3979 22.5625 19.6068 23.6361 20.0011C23.8542 20.082 23.9531 20.1798 23.9394 20.4291C23.9156 20.9582 23.9326 21.4907 23.9326 22.0535C23.7145 21.9457 23.5338 21.8479 23.3464 21.7603C22.3717 21.2952 21.339 21.0425 20.2688 20.9582C19.4917 20.8976 18.7147 20.8571 17.9342 20.8672C15.6098 20.8976 13.5308 21.6491 11.6904 23.0409C9.94542 24.3586 8.7287 26.0504 8.11864 28.1499C7.8085 29.2115 7.75396 30.3 7.79827 31.402C7.85621 32.8039 8.15613 34.1385 8.79346 35.3888C10.1908 38.1219 12.4095 39.817 15.4428 40.4573C16.6698 40.7168 17.9069 40.6898 19.1441 40.5483C20.6028 40.3832 21.9899 39.999 23.2373 39.2138C23.5782 38.9981 23.8951 38.742 24.1984 38.4791C24.2905 38.4016 24.3586 38.2432 24.3586 38.1219C24.3688 35.8673 24.3654 33.6094 24.3654 31.3548C24.3723 31.2773 24.3586 31.1998 24.3484 31.1054Z" fill="white"/>
<path fill-rule="evenodd" clip-rule="evenodd" d="M50.9833 39.544C50.9833 40.1068 50.9902 40.6359 50.9765 41.1684C50.9765 41.229 50.8709 41.3234 50.7993 41.3436C50.254 41.4919 49.7087 41.6941 49.1532 41.7514C46.8629 41.994 44.7907 41.3942 42.9673 40.0091C41.0485 38.5499 39.8659 36.6323 39.5557 34.2564C39.4228 33.2454 39.4671 32.2074 39.4841 31.1829C39.525 29.1272 40.2851 27.3344 41.6415 25.7909C42.9946 24.2541 44.6816 23.2532 46.7163 22.9061C49.4701 22.4343 51.9342 23.1117 54.0507 24.9214C55.6866 26.32 56.6682 28.1027 57.0192 30.2124C57.084 30.6134 57.1181 31.0246 57.1181 31.4323C57.1249 34.7855 57.1215 38.1387 57.1215 41.4885C57.1215 41.5863 57.1215 41.684 57.1215 41.7986C56.5285 41.7986 55.9627 41.7986 55.3663 41.7986C55.3663 41.6806 55.3663 41.5728 55.3663 41.4683C55.3663 38.1151 55.3901 34.7619 55.3595 31.4121C55.3288 27.887 52.7556 25.1944 49.5962 24.608C45.7756 23.9037 42.1016 26.4851 41.3416 30.1787C41.2666 30.546 41.2189 30.9268 41.2155 31.3009C41.2019 32.2883 41.1235 33.2791 41.3246 34.2564C41.8494 36.8311 43.3695 38.6139 45.8097 39.6081C47.432 40.2686 49.0782 40.218 50.7209 39.6316C50.7993 39.6047 50.8777 39.5777 50.9833 39.544Z" fill="white"/>
<path fill-rule="evenodd" clip-rule="evenodd" d="M22.9988 32.4535C22.9988 32.5478 22.9988 32.6253 22.9988 32.6995C22.9988 34.307 22.9954 35.9111 23.0022 37.5186C23.0022 37.6939 22.9476 37.8051 22.8113 37.9095C22.0513 38.4993 21.1686 38.8161 20.2415 39.0217C19.1952 39.2542 18.1251 39.3688 17.0583 39.298C13.9194 39.0924 11.595 37.5894 10.0954 34.8664C9.43761 33.6734 9.17177 32.3793 9.14791 31.0212C9.12405 29.7069 9.29446 28.4364 9.87726 27.2434C10.9474 25.0528 12.6788 23.5902 14.9623 22.7477C16.3358 22.2389 17.7638 22.1243 19.2191 22.2153C20.4563 22.2928 21.6662 22.4781 22.8215 22.9263C23.1487 23.051 23.4657 23.2027 23.7792 23.3543C23.8474 23.388 23.9224 23.4858 23.9224 23.5532C23.9326 24.1699 23.9292 24.7866 23.9292 25.4539C23.8338 25.3898 23.7656 25.3494 23.7008 25.3022C22.7363 24.581 21.6355 24.1935 20.446 24.0654C19.6485 23.9812 18.8408 23.9003 18.0433 23.9306C15.2315 24.0486 13.0332 25.2517 11.6154 27.7017C11.1247 28.5509 10.9168 29.4878 10.8963 30.4719C10.8724 31.6109 10.9883 32.7231 11.4859 33.7644C12.4743 35.8336 14.1 37.121 16.4005 37.4782C18.0228 37.7309 19.6144 37.5051 21.1583 36.9525C21.3151 36.8952 21.3731 36.8075 21.3731 36.6458C21.3662 35.9212 21.3628 35.1933 21.3731 34.4687C21.3765 34.2429 21.3117 34.1621 21.0697 34.1621C19.7951 34.1722 18.5238 34.1621 17.2492 34.1722C17.0379 34.1722 16.9663 34.1216 16.9731 33.9026C16.9901 33.424 16.9799 32.9488 16.9799 32.4501C18.9907 32.4535 20.9777 32.4535 22.9988 32.4535Z" fill="white"/>
<path fill-rule="evenodd" clip-rule="evenodd" d="M64.916 32.0794C65.0182 32.5343 65.083 32.9185 65.1886 33.2926C65.4852 34.3205 65.9998 35.2203 66.7769 35.9785C68.4128 37.5725 70.7031 37.1277 71.9777 35.8403C72.6832 35.1293 73.0718 34.2699 73.0888 33.269C73.1024 32.5141 73.1399 31.7525 73.0718 31.0043C72.9218 29.3901 71.688 28.0421 70.0862 27.6815C68.6752 27.3647 67.4483 27.7522 66.3883 28.6925C64.9807 29.9461 63.7572 31.375 62.5405 32.8039C61.1568 34.4283 59.8174 36.0864 58.4609 37.7309C58.4473 37.7478 58.437 37.7714 58.3791 37.7815C58.3757 37.7208 58.3655 37.6602 58.3655 37.5961C58.3655 36.848 58.3587 36.0965 58.3723 35.3483C58.3757 35.2203 58.4234 35.072 58.4984 34.9709C59.7526 33.3196 61.1125 31.7592 62.5269 30.2427C63.2971 29.4137 64.0708 28.5846 64.8887 27.7961C65.8123 26.9064 66.8825 26.2222 68.1606 25.9493C69.684 25.6257 71.0916 25.9695 72.356 26.8491C73.658 27.7522 74.4793 28.9823 74.7759 30.5359C74.827 30.8055 74.8474 31.0886 74.8474 31.3649C74.8406 32.1973 74.8781 33.0365 74.7895 33.8621C74.5475 36.0425 72.8877 37.9062 70.7133 38.5195C68.3344 39.1902 65.9112 38.2432 64.5104 36.1032C64.0844 35.4494 63.7743 34.7451 63.5936 33.9902C63.5698 33.8823 63.6038 33.7273 63.672 33.6397C64.0401 33.1713 64.4286 32.7163 64.8069 32.2546C64.8444 32.2108 64.8649 32.1603 64.916 32.0794Z" fill="white"/>
<path fill-rule="evenodd" clip-rule="evenodd" d="M50.9833 36.1538C50.9833 36.7503 50.9902 37.3063 50.9765 37.859C50.9731 37.9433 50.8777 38.0444 50.7993 38.0983C50.3324 38.4117 49.8007 38.5701 49.252 38.6543C46.8594 39.0183 44.593 37.9601 43.3626 35.9044C42.8446 35.0383 42.5719 34.098 42.5788 33.087C42.5822 32.5916 42.5822 32.0996 42.5788 31.6042C42.5617 29.7305 43.3354 28.224 44.7941 27.0648C48.0523 24.4766 53.0896 26.1548 53.8973 30.391C53.9689 30.7752 53.9996 31.1728 54.003 31.5638C54.0098 34.8765 54.0064 38.1893 54.0064 41.502C54.0064 41.8121 54.0064 41.8121 53.686 41.8154C53.2941 41.8154 52.9056 41.8053 52.5136 41.8188C52.3125 41.8255 52.2648 41.7514 52.2648 41.566C52.2716 40.6764 52.2682 39.79 52.2682 38.9003C52.2682 36.484 52.2682 34.0643 52.2682 31.648C52.2682 30.7887 52.0808 29.9765 51.573 29.2654C50.772 28.1499 49.678 27.6006 48.2875 27.5736C46.6584 27.5467 44.9338 28.6183 44.4601 30.4955C44.3851 30.7988 44.351 31.1189 44.3408 31.4323C44.3203 31.9783 44.334 32.5276 44.334 33.0769C44.334 35.0551 45.7279 36.6829 47.7115 36.9626C48.7953 37.1176 49.8212 36.8884 50.755 36.3088C50.8129 36.265 50.8777 36.2212 50.9833 36.1538Z" fill="white"/>
<path fill-rule="evenodd" clip-rule="evenodd" d="M41.437 23.9306C40.994 24.4058 40.6054 24.827 40.2237 25.2348C39.7704 25.0663 39.3342 24.8439 38.8707 24.7394C36.093 24.116 33.6153 24.6383 31.6181 26.7513C30.7251 27.695 30.2309 28.8509 30.0401 30.1214C29.948 30.7212 29.914 31.3346 29.914 31.9412C29.9003 35.1225 29.9071 38.3038 29.9071 41.4852C29.9071 41.8121 29.9071 41.8121 29.5766 41.8121C29.1778 41.8121 28.779 41.8053 28.3803 41.8154C28.2133 41.8188 28.1519 41.7581 28.1656 41.6031C28.169 41.566 28.1656 41.5256 28.1656 41.4885C28.1656 38.1758 28.169 34.863 28.1656 31.5503C28.1656 29.6395 28.6393 27.8702 29.7606 26.2998C31.0864 24.4429 32.9166 23.351 35.1592 22.9331C36.9041 22.6062 38.6219 22.714 40.2817 23.3611C40.6736 23.5094 41.0315 23.7284 41.437 23.9306Z" fill="white"/>
<path fill-rule="evenodd" clip-rule="evenodd" d="M39.4569 26.3503C39.191 26.8727 38.9422 27.3647 38.6968 27.8466C38.3492 27.7657 38.005 27.6511 37.6539 27.6107C35.9839 27.4152 34.3685 27.9342 33.4994 29.5249C33.1824 30.1045 33.0325 30.7347 33.0325 31.3919C33.029 34.7518 33.0325 38.1118 33.0325 41.4717C33.0325 41.5728 33.0325 41.6705 33.0325 41.7918C32.4497 41.7918 31.8839 41.7918 31.2943 41.7918C31.2909 41.711 31.2806 41.6301 31.2806 41.5492C31.2806 38.1353 31.25 34.7215 31.2909 31.3076C31.3215 28.5543 33.2404 26.4076 35.8544 25.9425C36.9007 25.7572 37.9334 25.8178 38.9491 26.1346C39.1229 26.1852 39.2865 26.2762 39.4569 26.3503Z" fill="white"/>
<path fill-rule="evenodd" clip-rule="evenodd" d="M60.2161 15.0168C60.7989 15.0168 61.3578 15.0168 61.9406 15.0168C61.9441 15.1112 61.9543 15.1921 61.9543 15.273C61.9543 18.2251 61.9543 21.1739 61.9577 24.1261C61.9577 24.2777 61.91 24.3755 61.8009 24.4867C61.3306 24.9585 60.8739 25.4471 60.4138 25.929C60.3558 25.9897 60.3013 26.0504 60.2195 26.1447C60.2161 22.4141 60.2161 18.7273 60.2161 15.0168Z" fill="white"/>
<path fill-rule="evenodd" clip-rule="evenodd" d="M63.3244 23.5532C63.3244 23.4251 63.3244 23.3442 63.3244 23.26C63.3244 20.6111 63.3244 17.9623 63.3244 15.31C63.3244 15 63.3244 15 63.6482 15C64.006 15 64.3673 15 64.7251 15C65.0591 15 65.0625 15 65.0625 15.3437C65.0625 15.8526 65.0625 16.3649 65.0625 16.8737C65.0625 18.6262 65.0591 20.382 65.066 22.1344C65.066 22.3164 65.0114 22.4208 64.8478 22.5219C64.398 22.8016 63.9685 23.1117 63.5323 23.4083C63.4777 23.4487 63.4232 23.4858 63.3244 23.5532Z" fill="white"/>
</svg>
